<svg width="112" height="125" viewBox="0 0 112 125" fill="none" xmlns="http://www.w3.org/2000/svg">
<path d="M0 125V24.6305H22.069V0H89.931V49.2611H112V125H61.5172V93.2882H50.4828V125H0ZM17.3793 105.603H28.4138V93.2882H17.3793V105.603ZM17.3793 80.9729H28.4138V68.6576H17.3793V80.9729ZM17.3793 56.3424H28.4138V44.0271H17.3793V56.3424ZM39.4483 80.9729H50.4828V68.6576H39.4483V80.9729ZM39.4483 56.3424H50.4828V44.0271H39.4483V56.3424ZM39.4483 31.7118H50.4828V19.3966H39.4483V31.7118ZM61.5172 80.9729H72.5517V68.6576H61.5172V80.9729ZM61.5172 56.3424H72.5517V44.0271H61.5172V56.3424ZM61.5172 31.7118H72.5517V19.3966H61.5172V31.7118ZM83.5862 105.603H94.6207V93.2882H83.5862V105.603ZM83.5862 80.9729H94.6207V68.6576H83.5862V80.9729Z" fill="#162D4D"/>
</svg>
