<svg width="112" height="125" viewBox="0 0 112 125" fill="none" xmlns="http://www.w3.org/2000/svg">
<path d="M0 125V30.9977H33.1034V23.9331L56 0L78.8966 23.9331V54.0657H112V125H0ZM17.3793 106.834H28.4138V95.2999H17.3793V106.834ZM17.3793 83.7659H28.4138V72.2318H17.3793V83.7659ZM17.3793 60.6978H28.4138V49.1638H17.3793V60.6978ZM50.4828 106.834H61.5172V95.2999H50.4828V106.834ZM50.4828 83.7659H61.5172V72.2318H50.4828V83.7659ZM50.4828 60.6978H61.5172V49.1638H50.4828V60.6978ZM50.4828 37.6298H61.5172V26.0957H50.4828V37.6298ZM83.5862 106.834H94.6207V95.2999H83.5862V106.834ZM83.5862 83.7659H94.6207V72.2318H83.5862V83.7659Z" fill="#FF7F41"/>
</svg>
