<svg width="112" height="125" viewBox="0 0 112 125" fill="none" xmlns="http://www.w3.org/2000/svg">
<path d="M0 125V107.613C4.40803 107.613 7.55663 106.569 9.44578 104.48C11.3349 102.391 14.7984 101.347 19.8361 101.347C24.8739 101.347 28.4948 102.391 30.6988 104.48C32.9028 106.569 35.3092 107.613 37.9181 107.613C40.6169 107.613 43.0458 106.569 45.2048 104.48C47.3639 102.391 50.9622 101.347 56 101.347C61.0378 101.347 64.6361 102.391 66.7952 104.48C68.9542 106.569 71.3831 107.613 74.0819 107.613C76.7807 107.613 79.2096 106.569 81.3687 104.48C83.5277 102.391 87.1261 101.347 92.1639 101.347C97.2016 101.347 100.665 102.391 102.554 104.48C104.443 106.569 107.592 107.613 112 107.613V125C105.883 125 101.722 123.956 99.5181 121.867C97.3141 119.779 94.8627 118.734 92.1639 118.734C89.4651 118.734 87.0361 119.779 84.8771 121.867C82.7181 123.956 79.1197 125 74.0819 125C69.0442 125 65.4458 123.956 63.2867 121.867C61.1277 119.779 58.6988 118.734 56 118.734C53.3012 118.734 50.8723 119.779 48.7133 121.867C46.5542 123.956 42.9558 125 37.9181 125C32.8803 125 29.2819 123.956 27.1229 121.867C24.9639 119.779 22.5349 118.734 19.8361 118.734C17.1373 118.734 14.6859 119.779 12.4819 121.867C10.2779 123.956 6.11727 125 0 125ZM0 94.4549V77.0677C4.40803 77.0677 7.55663 76.0234 9.44578 73.9348C11.3349 71.8463 14.7984 70.802 19.8361 70.802C24.8739 70.802 28.4723 71.8463 30.6313 73.9348C32.7904 76.0234 35.2193 77.0677 37.9181 77.0677C40.6169 77.0677 43.0458 76.0234 45.2048 73.9348C47.3639 71.8463 50.9622 70.802 56 70.802C61.0378 70.802 64.6811 71.8463 66.9301 73.9348C69.1791 76.0234 71.5631 77.0677 74.0819 77.0677C76.7807 77.0677 79.2096 76.0234 81.3687 73.9348C83.5277 71.8463 87.1261 70.802 92.1639 70.802C97.2016 70.802 100.665 71.8463 102.554 73.9348C104.443 76.0234 107.592 77.0677 112 77.0677V94.4549C105.883 94.4549 101.722 93.4106 99.5181 91.3221C97.3141 89.2335 94.8627 88.1892 92.1639 88.1892C89.4651 88.1892 87.0586 89.2335 84.9446 91.3221C82.8305 93.4106 79.2096 94.4549 74.0819 94.4549C69.0442 94.4549 65.4458 93.4106 63.2867 91.3221C61.1277 89.2335 58.6988 88.1892 56 88.1892C53.2112 88.1892 50.7823 89.2335 48.7133 91.3221C46.6442 93.4106 43.0458 94.4549 37.9181 94.4549C32.7904 94.4549 29.1695 93.4106 27.0554 91.3221C24.9414 89.2335 22.5349 88.1892 19.8361 88.1892C17.1373 88.1892 14.6859 89.2335 12.4819 91.3221C10.2779 93.4106 6.11727 94.4549 0 94.4549ZM25.0988 58.114L43.1807 37.1241L39.2675 32.5815C36.9285 29.8663 34.0948 27.6733 30.7663 26.0025C27.4378 24.3317 22.9398 23.4962 17.2723 23.4962V3.13283C24.9189 3.13283 31.5759 4.35986 37.2434 6.81391C42.9108 9.26796 47.7687 12.8446 51.8169 17.5439L86.9012 58.114C85.102 59.6805 83.0329 61.0119 80.694 62.1084C78.355 63.2049 76.151 63.7531 74.0819 63.7531C70.6635 63.7531 67.8972 62.7089 65.7831 60.6203C63.6691 58.5317 60.408 57.4875 56 57.4875C51.592 57.4875 48.3309 58.5317 46.2169 60.6203C44.1028 62.7089 41.3365 63.7531 37.9181 63.7531C35.849 63.7531 33.645 63.2049 31.306 62.1084C28.9671 61.0119 26.898 59.6805 25.0988 58.114ZM83.2578 0C87.6659 0 91.3542 1.77527 94.3229 5.32581C97.2916 8.87636 98.7759 13.1057 98.7759 18.0138C98.7759 23.1307 97.2916 27.4123 94.3229 30.8584C91.3542 34.3045 87.6659 36.0276 83.2578 36.0276C78.8498 36.0276 75.139 34.3045 72.1253 30.8584C69.1116 27.4123 67.6048 23.1307 67.6048 18.0138C67.6048 13.1057 69.1116 8.87636 72.1253 5.32581C75.139 1.77527 78.8498 0 83.2578 0Z" fill="#FF7F41"/>
</svg>
